<?xml version="1.0" standalone="no"?>
<!DOCTYPE svg PUBLIC "-//W3C//DTD SVG 20010904//EN"
 "http://www.w3.org/TR/2001/REC-SVG-20010904/DTD/svg10.dtd">
<svg version="1.0" xmlns="http://www.w3.org/2000/svg"
 width="604.000000pt" height="599.000000pt" viewBox="0 0 604.000000 599.000000"
 preserveAspectRatio="xMidYMid meet">

<g transform="translate(0.000000,599.000000) scale(0.100000,-0.100000)"
fill="#000000" stroke="none">
<path d="M0 2995 l0 -2995 3020 0 3020 0 0 2995 0 2995 -3020 0 -3020 0 0
-2995z m3240 2436 c5 -11 10 -74 10 -140 l0 -120 43 -11 c23 -6 67 -18 98 -28
l56 -18 59 108 c42 77 66 110 82 114 17 5 61 -16 175 -81 162 -93 187 -111
187 -131 0 -7 -29 -62 -64 -122 l-64 -110 73 -72 74 -73 107 62 c60 34 117 61
128 59 15 -2 42 -39 94 -128 127 -218 135 -239 96 -254 -28 -11 -45 8 -125
147 -46 78 -83 143 -84 145 -1 1 -52 -27 -113 -63 -61 -36 -113 -65 -116 -65
-15 0 -218 218 -218 235 0 11 25 63 56 115 31 52 56 100 56 105 0 8 -192 127
-230 143 -4 1 -36 -47 -71 -108 -45 -79 -68 -110 -82 -110 -11 0 -56 11 -101
25 -44 13 -106 30 -136 37 l-55 13 -5 135 -5 135 -55 -1 c-30 -1 -92 -2 -137
-3 l-83 -1 0 -109 c0 -150 -3 -156 -87 -171 -37 -7 -103 -23 -146 -37 -42 -13
-82 -21 -87 -18 -5 3 -37 55 -71 115 l-63 110 -30 -18 c-17 -10 -72 -42 -122
-71 l-92 -54 50 -86 c91 -157 95 -125 -30 -251 -60 -61 -116 -110 -125 -110
-8 0 -62 27 -118 60 -59 34 -107 56 -112 51 -5 -5 -44 -69 -86 -142 -71 -124
-79 -134 -107 -134 -53 0 -42 35 64 214 53 91 102 166 107 168 6 2 62 -26 124
-62 l113 -65 74 68 c40 37 74 71 74 76 0 5 -27 56 -60 113 -33 58 -60 111 -60
117 0 7 8 20 18 28 29 26 317 188 333 188 22 0 39 -22 100 -132 30 -54 59 -96
64 -94 6 2 52 14 103 27 l92 24 0 131 c0 72 3 134 7 137 3 4 98 7 209 7 191 0
204 -1 214 -19z m-190 -196 c26 -32 -13 -81 -47 -59 -35 22 -23 74 17 74 10 0
23 -7 30 -15z m-596 -207 c22 -35 -27 -74 -59 -48 -18 15 -20 56 -2 64 22 9
50 1 61 -16z m1216 7 c26 -32 -13 -81 -47 -59 -35 22 -23 74 17 74 10 0 23 -7
30 -15z m-410 -106 c304 -76 572 -306 686 -589 31 -75 29 -104 -7 -108 -23 -3
-29 5 -64 85 -58 128 -121 218 -219 310 -182 172 -388 253 -644 253 -360 0
-675 -199 -833 -525 -27 -57 -55 -105 -63 -108 -8 -3 -22 1 -33 8 -17 13 -17
16 5 77 56 158 225 363 379 462 120 77 278 138 407 156 98 14 290 4 386 -21z
m-1290 -394 c15 -18 10 -45 -12 -59 -33 -20 -69 20 -54 60 7 18 50 18 66 -1z
m2145 -19 c0 -52 -63 -62 -73 -12 -7 33 6 47 40 44 29 -3 33 -7 33 -32z m-860
-75 c46 -40 78 -45 160 -21 89 25 117 25 141 -1 18 -20 19 -43 22 -373 l3
-352 -23 -34 c-57 -85 -167 -79 -213 10 -12 23 -15 72 -15 228 0 213 -4 232
-50 217 -19 -6 -20 -14 -20 -203 0 -172 -3 -202 -19 -239 -32 -69 -114 -94
-175 -54 -52 35 -55 49 -56 268 0 170 -2 204 -16 217 -18 19 -20 19 -45 6 -18
-10 -19 -23 -19 -211 0 -224 -7 -257 -63 -286 -43 -22 -112 -12 -144 19 -36
36 -42 82 -43 284 0 153 -2 184 -16 195 -11 9 -20 10 -32 2 -15 -9 -18 -37
-22 -194 -4 -117 -10 -192 -18 -206 -38 -69 -133 -86 -189 -34 -18 16 -34 43
-38 62 -3 19 -5 155 -3 302 l3 269 33 29 c40 35 88 38 162 9 64 -25 85 -20
158 37 l57 45 75 -8 c126 -12 164 -9 205 16 89 55 138 55 200 1z m-1528 -176
c64 -19 123 -62 170 -125 l37 -50 178 0 178 0 0 -135 0 -135 -180 0 -179 0
-15 -27 c-27 -54 -105 -121 -164 -143 -64 -25 -154 -29 -219 -11 -52 14 -129
66 -161 109 l-25 32 115 0 114 0 58 80 c35 49 54 85 50 93 -4 6 -30 42 -57 80
l-49 67 -119 0 c-69 0 -119 4 -119 10 0 5 24 34 53 65 88 94 209 127 334 90z
m2769 -6 c105 -40 182 -132 204 -244 39 -204 -112 -386 -320 -387 -114 -1
-212 51 -272 143 l-31 49 -209 0 -208 0 0 135 0 135 209 0 209 0 22 35 c80
130 252 188 396 134z m-776 -673 c0 -90 -3 -107 -23 -137 -43 -64 -64 -69
-325 -69 -249 0 -276 4 -319 51 -18 19 -42 87 -43 121 0 3 13 0 30 -8 73 -37
148 -30 214 21 l44 34 19 -21 c26 -30 92 -58 138 -58 80 0 174 69 190 139 6
27 11 31 41 31 l34 0 0 -104z m238 82 c18 -18 15 -43 -18 -119 -65 -153 -196
-317 -330 -411 -469 -332 -1108 -218 -1428 254 -54 79 -114 211 -100 219 49
26 57 22 82 -35 88 -198 265 -377 468 -471 131 -60 223 -79 388 -78 158 0 241
16 363 70 224 99 410 286 495 496 35 88 51 104 80 75z m-1988 -253 c15 -18 10
-45 -12 -59 -33 -20 -69 20 -54 60 7 18 50 18 66 -1z m2146 -10 c11 -43 -34
-73 -64 -43 -13 13 -16 50 -5 61 3 4 19 7 34 7 22 0 30 -6 35 -25z m297 -6 c8
-12 -13 -55 -89 -187 -54 -95 -106 -175 -116 -178 -11 -3 -60 20 -129 61
l-112 66 -66 -72 c-36 -40 -67 -76 -69 -80 -2 -4 24 -56 58 -114 34 -58 60
-114 58 -123 -2 -9 -59 -49 -128 -90 -175 -102 -217 -123 -234 -116 -9 3 -44
55 -78 115 -34 60 -67 107 -73 105 -5 -2 -49 -14 -97 -27 l-88 -24 0 -120 c0
-175 14 -165 -224 -165 -148 0 -196 3 -204 13 -7 8 -13 68 -14 141 l-3 128
-95 24 c-52 13 -97 24 -100 24 -3 0 -34 -49 -68 -109 -34 -60 -70 -112 -79
-115 -22 -9 -357 183 -361 207 -2 9 24 65 57 123 34 58 61 109 61 112 0 4 -32
39 -71 78 l-71 71 -115 -65 c-90 -51 -119 -63 -132 -55 -23 14 -201 323 -201
349 0 24 23 38 49 29 9 -3 52 -68 96 -145 44 -77 84 -140 89 -140 6 0 56 27
114 61 57 33 107 59 112 57 11 -3 214 -201 224 -217 4 -6 -21 -58 -54 -116
-34 -59 -60 -110 -58 -115 2 -5 55 -40 118 -78 l115 -68 60 105 c33 57 67 109
77 114 12 8 39 4 105 -16 48 -15 108 -30 132 -33 74 -12 81 -25 81 -164 l0
-120 140 0 140 0 0 135 0 134 38 10 c20 5 53 12 72 16 19 3 70 18 113 32 54
17 81 22 90 15 7 -6 39 -57 72 -114 l59 -104 106 61 c58 34 112 66 122 71 14
8 8 23 -48 119 -35 60 -64 113 -64 117 0 12 217 228 228 228 6 0 60 -28 119
-63 l109 -63 73 130 c41 72 81 139 89 149 18 21 51 19 65 -4z m-1968 -472 c23
-18 14 -63 -16 -72 -39 -13 -67 43 -37 73 16 16 30 15 53 -1z m1216 3 c25 -14
25 -56 -1 -70 -45 -24 -86 44 -42 69 21 13 20 13 43 1z m-613 -202 c17 -17 15
-53 -3 -68 -24 -20 -65 3 -65 34 0 37 43 59 68 34z m-260 -1115 l2 -493 -65 0
-65 0 0 495 0 496 63 -3 62 -3 3 -492z m-357 389 l29 -32 0 -170 c0 -159 -1
-171 -21 -191 l-21 -21 21 -22 c20 -21 21 -34 21 -192 0 -189 -5 -209 -60
-237 -30 -15 -60 -17 -215 -15 l-180 3 -3 445 c-1 245 0 451 3 458 4 10 46 13
201 10 l196 -3 29 -33z m904 -176 c62 -26 65 -43 65 -346 0 -303 -3 -320 -65
-346 -41 -17 -247 -19 -293 -3 -65 22 -67 33 -67 345 0 309 3 325 60 350 43
19 255 18 300 0z m489 -7 l26 -20 0 21 c0 20 4 21 68 18 l67 -3 0 -420 c0
-388 -1 -422 -18 -446 -30 -45 -68 -54 -222 -54 l-140 0 -3 53 -3 52 113 0
c75 0 118 4 126 12 12 12 18 128 7 128 -3 0 -17 -7 -30 -16 -19 -12 -43 -15
-101 -12 -71 3 -78 6 -105 36 l-29 32 0 284 c0 274 1 284 21 310 29 37 52 45
130 45 53 1 72 -3 93 -20z m-2084 -959 c0 -13 -7 -20 -20 -20 -13 0 -20 7 -20
20 0 13 7 20 20 20 13 0 20 -7 20 -20z m440 -144 l0 -165 -62 2 -63 2 -3 107
c-3 101 -1 108 19 118 16 9 28 9 45 1 24 -10 24 -10 24 44 0 48 2 55 20 55 19
0 20 -7 20 -164z m-550 124 c0 -17 -7 -20 -45 -20 l-45 0 0 -50 0 -50 35 0
c28 0 35 -4 35 -20 0 -16 -7 -20 -35 -20 l-35 0 0 -65 c0 -58 -2 -65 -20 -65
-19 0 -20 7 -20 155 l0 155 65 0 c58 0 65 -2 65 -20z m110 -170 c0 -113 -1
-120 -20 -120 -19 0 -20 7 -20 120 0 113 1 120 20 120 19 0 20 -7 20 -120z
m130 110 c0 -6 9 -5 24 1 17 8 29 8 45 0 19 -11 21 -20 21 -121 0 -103 -1
-110 -20 -110 -19 0 -20 7 -20 100 l0 100 -25 0 -25 0 0 -100 c0 -93 -1 -100
-20 -100 -19 0 -20 7 -20 120 0 113 1 120 20 120 11 0 20 -4 20 -10z m550 -62
c6 -40 15 -84 19 -98 l8 -25 6 30 c4 17 12 60 18 98 9 55 14 67 30 67 24 0 24
6 -7 -152 -26 -138 -36 -158 -81 -158 -29 0 -30 22 -1 35 25 12 36 35 16 35
-10 0 -21 33 -36 108 -27 130 -27 132 -3 132 16 0 21 -12 31 -72z m291 62 c17
-10 19 -22 19 -114 0 -86 -3 -105 -16 -110 -27 -10 -99 -7 -112 6 -8 8 -12 47
-12 110 0 93 1 99 23 108 30 12 74 12 98 0z m149 -96 c0 -104 0 -105 23 -102
21 3 22 8 25 106 2 94 4 102 22 102 19 0 20 -7 20 -119 l0 -120 -62 2 -63 2
-3 118 c-3 112 -2 117 18 117 19 0 20 -6 20 -106z m220 96 c0 -7 6 -7 19 0 27
14 31 13 31 -10 0 -13 -7 -20 -19 -20 -26 0 -31 -19 -31 -116 0 -77 -2 -84
-20 -84 -19 0 -20 7 -20 120 0 113 1 120 20 120 11 0 20 -5 20 -10z m301 0
c13 -7 19 -7 19 0 0 5 9 10 20 10 19 0 20 -7 20 -119 l0 -120 -62 2 -63 2 -3
105 c-2 90 0 107 15 117 21 16 29 16 54 3z m189 0 c0 -7 6 -7 19 0 28 14 38
13 61 -10 17 -17 20 -33 20 -120 l0 -100 -25 0 -25 0 0 101 c0 98 0 100 -22
97 -22 -3 -23 -8 -26 -100 -2 -90 -4 -98 -22 -98 -19 0 -20 7 -20 120 0 113 1
120 20 120 11 0 20 -5 20 -10z m281 0 c26 -14 26 -60 0 -60 -11 0 -21 9 -24
21 -9 32 -32 17 -35 -24 -3 -35 -2 -36 35 -39 l38 -3 0 -60 0 -60 -34 -3 c-55
-6 -81 5 -81 33 0 18 5 25 20 25 11 0 20 -7 20 -15 0 -8 9 -15 20 -15 16 0 20
7 20 35 0 30 -3 35 -24 35 -48 0 -56 9 -56 66 0 40 4 56 18 63 22 13 58 14 83
1z m140 -90 c18 -105 22 -103 39 18 12 76 14 82 36 82 26 0 30 -10 40 -95 12
-104 20 -107 34 -13 14 96 21 113 42 105 13 -4 12 -22 -6 -119 l-22 -113 -29
0 c-30 0 -30 1 -42 79 -6 43 -14 80 -16 82 -2 2 -9 -34 -16 -81 -13 -84 -13
-85 -42 -85 -16 0 -29 1 -29 3 0 1 -9 49 -20 107 -24 128 -24 132 -2 128 13
-2 20 -23 33 -98z m390 90 c15 -9 19 -22 19 -70 l0 -60 -45 0 c-45 0 -45 0
-45 -35 0 -31 3 -35 25 -35 18 0 25 5 25 20 0 13 7 20 20 20 15 0 20 -7 20
-29 0 -34 -14 -41 -76 -41 -55 0 -58 5 -58 123 -1 77 2 91 18 103 23 16 69 18
97 4z m144 0 c4 -7 12 -7 24 0 20 10 31 4 31 -16 0 -7 -10 -14 -22 -16 -22 -3
-23 -8 -26 -100 -2 -90 -4 -98 -22 -98 -19 0 -20 7 -20 120 0 98 3 120 14 120
8 0 18 -5 21 -10z"/>
<path d="M1917 3992 c-35 -38 -7 -102 43 -102 25 0 60 38 60 64 0 49 -70 75
-103 38z"/>
<path d="M4303 4087 l-73 -42 0 -92 0 -92 68 -40 c38 -22 73 -41 79 -43 6 -2
45 17 87 42 l77 45 -3 90 -3 89 -70 42 c-38 24 -74 43 -80 43 -5 0 -43 -18
-82 -42z"/>
<path d="M4030 3995 c-31 -37 2 -105 50 -105 24 0 53 35 53 65 0 36 -20 55
-58 55 -18 0 -38 -7 -45 -15z"/>
<path d="M2140 1790 l0 -150 76 0 c116 0 114 -2 114 148 0 86 -4 132 -12 140
-7 7 -44 12 -95 12 l-83 0 0 -150z"/>
<path d="M2142 1383 l3 -158 66 -3 c36 -2 78 2 92 7 l27 11 0 139 c0 165 3
161 -115 161 l-76 0 3 -157z"/>
<path d="M3130 1733 c-8 -3 -18 -11 -22 -17 -11 -16 -9 -458 1 -475 11 -18 98
-26 134 -12 l27 11 0 240 0 240 -26 10 c-27 11 -89 12 -114 3z"/>
<path d="M3715 1718 c-3 -7 -4 -117 -3 -243 l3 -230 65 0 65 0 0 240 0 240
-63 3 c-44 2 -64 -1 -67 -10z"/>
<path d="M2090 664 c0 -83 1 -85 23 -82 20 3 22 9 25 86 3 82 3 82 -23 82 -25
0 -25 -1 -25 -86z"/>
<path d="M2632 668 c3 -82 3 -83 31 -86 l27 -3 0 85 0 86 -30 0 -31 0 3 -82z"/>
<path d="M3350 664 c0 -83 1 -85 23 -82 20 3 22 9 25 86 3 82 3 82 -23 82 -25
0 -25 -1 -25 -86z"/>
<path d="M4310 720 c0 -25 4 -30 25 -30 21 0 25 5 25 30 0 25 -4 30 -25 30
-21 0 -25 -5 -25 -30z"/>
</g>
</svg>
